# xmcd
#
# Track frame offsets: 
#        150
#        7689
#        22676
#        40169
#        61832
#        63447
#        78068
#        98230
#        117226
#        143231
#        145897
#        173372
#        184977
#        204654
#        221193
#        243089
#        249742
#
# Disc length: 3603 seconds
#
# Revision: 0
# Processed by: cddbd v1.5.2PL0 Copyright (c) Steve Scherf et al.
# Submitted via: ExactAudioCopyFreeDBPlugin 1.0
#
DISCID=dc0e1111
DTITLE=Austin Walkin' Cane - A World Of Blues
DYEAR=2011
DGENRE=Blues
TTITLE0=A World Of Blues
TTITLE1=High Rent Lemon Girl, Aren't Ya
TTITLE2=Closing Time
TTITLE3=Better Than I Should
TTITLE4=Bring Up My Friends
TTITLE5=Love Grown Strong
TTITLE6=Crescent City Lights
TTITLE7=One Step (Ahead Of The Landlord)
TTITLE8=Murder Of A Bues Singer
TTITLE9=Georgia Moon - Intro
TTITLE10=Georgia Moon
TTITLE11=I'm Not The Man
TTITLE12=U.S. Crawl
TTITLE13=Step It Up and Go
TTITLE14=Radio Cafe
TTITLE15=Devil's Backbone - Intro
TTITLE16=Devil's Backbone
EXTD=
EXTT0=
EXTT1=
EXTT2=
EXTT3=
EXTT4=
EXTT5=
EXTT6=
EXTT7=
EXTT8=
EXTT9=
EXTT10=
EXTT11=
EXTT12=
EXTT13=
EXTT14=
EXTT15=
EXTT16=
PLAYORDER=
